<svg xmlns="http://www.w3.org/2000/svg" version="1.1" xmlns:xlink="http://www.w3.org/1999/xlink" xmlns:svgjs="http://svgjs.dev/svgjs" width="1500" height="731" viewBox="0 0 1500 731"><g transform="matrix(1,0,0,1,-0.9090909090909918,-1.3536516077570013)"><svg viewBox="0 0 396 193" data-background-color="#dbefed" preserveAspectRatio="xMidYMid meet" height="731" width="1500" xmlns="http://www.w3.org/2000/svg" xmlns:xlink="http://www.w3.org/1999/xlink"><g id="tight-bounds" transform="matrix(1,0,0,1,0.2400000000000091,0.3573936529372048)"><svg viewBox="0 0 395.52 192.2852126941256" height="192.2852126941256" width="395.52"><g><svg viewBox="0 0 395.52 192.2852126941256" height="192.2852126941256" width="395.52"><g><svg viewBox="0 0 395.52 192.2852126941256" height="192.2852126941256" width="395.52"><g id="textblocktransform"><svg viewBox="0 0 395.52 192.2852126941256" height="192.2852126941256" width="395.52" id="textblock"><g><svg viewBox="0 0 395.52 192.2852126941256" height="192.2852126941256" width="395.52"><g transform="matrix(1,0,0,1,0,0)"><svg width="395.52" viewBox="3.98 -35.16 72.31 35.16" height="192.2852126941256" data-palette-color="#088c0c"><path d="M13.67-15.33L13.67 0 3.98 0 3.98-35.16 13.67-35.16 13.67-19.8 26.51-19.8 26.51-35.16 36.21-35.16 36.21 0 26.51 0 26.51-15.33 13.67-15.33ZM48.65-24.12L48.65 0 44.16 0 44.16-35.16 50.46-35.16 71.82-11.01 71.82-35.16 76.29-35.16 76.29 0 69.99 0 48.65-24.12Z" opacity="1" transform="matrix(1,0,0,1,0,0)" fill="#088c0c" class="wordmark-text-0" data-fill-palette-color="primary" id="text-0"></path></svg></g></svg></g></svg></g></svg></g></svg></g><defs></defs></svg><rect width="395.52" height="192.2852126941256" fill="none" stroke="none" visibility="hidden"></rect></g></svg></g></svg>